<svg xmlns="http://www.w3.org/2000/svg" viewBox="0 0 400.28 357.49">
  <defs>
    <style>
      .cls-1 {
        fill: #008fc1;
      }
    </style>
  </defs>
  <title>资源 1</title>
  <g id="图层_2" data-name="图层 2">
    <g id="图层_7" data-name="图层 7">
      <path class="cls-1"
        d="M315.62,336l.38-.76c.17-.34.34-.68.5-1s.25-.54.37-.82l.39-.94c.13-.32.26-.64.38-1s.2-.54.29-.81.26-.75.38-1.13c.07-.21.13-.42.2-.63.13-.45.26-.89.38-1.34,0-.15.07-.3.11-.45.13-.51.25-1,.36-1.55,0-.09,0-.18.05-.27.12-.58.22-1.17.31-1.75a.69.69,0,0,0,0-.13c.1-.64.18-1.27.24-1.9v-.06c.06-.66.11-1.31.15-2v-.07c0-.64.05-1.29.05-1.93v-.19c0-.58,0-1.16,0-1.73l0-.45c0-.46-.06-.92-.1-1.39,0-.25,0-.51-.08-.77l-.12-1c-.05-.38-.11-.75-.17-1.12,0-.2-.07-.4-.11-.6-.08-.48-.18-1-.28-1.44l-.06-.27c-.13-.56-.27-1.13-.42-1.68h0A73.21,73.21,0,0,1,370,217.5a40,40,0,0,0,22.13-14.69l.21-.27.79-1.11.41-.6c.2-.3.39-.61.59-.92l.52-.86.23-.36.23-.43.54-1c.13-.26.27-.52.4-.79s.31-.64.46-1l.41-.89c.12-.28.24-.57.35-.85s.29-.71.42-1.06.17-.45.25-.68c.15-.42.29-.85.43-1.28,0-.15.09-.3.14-.46.15-.51.3-1,.43-1.53l.06-.23q.22-.9.42-1.8h0a39.9,39.9,0,0,0,.61-12.12v-.07c-.06-.58-.13-1.16-.22-1.74,0-.12,0-.23,0-.35-.07-.47-.16-.94-.25-1.41l-.12-.61c-.08-.38-.17-.76-.26-1.13s-.13-.56-.2-.83-.18-.62-.27-.93-.18-.64-.28-1-.19-.58-.29-.87-.21-.64-.33-.95-.27-.69-.41-1-.19-.49-.29-.73c-.22-.51-.45-1-.69-1.52l-.09-.19a39.89,39.89,0,0,0-12-14.64l-.14-.1c-.4-.29-.8-.58-1.21-.86-.17-.12-.34-.24-.52-.35s-.63-.42-1-.62l-.83-.51-.36-.22c-.16-.09-.33-.17-.49-.27l-.81-.44c-.27-.15-.55-.29-.83-.43l-.85-.41-.9-.41-.8-.35c-.36-.15-.72-.28-1.08-.42l-.63-.25c-.54-.19-1.07-.37-1.61-.54l-.14,0a39.3,39.3,0,0,0-5.78-1.34h0c-.65-.1-1.3-.18-1.95-.25h-.08c-.65-.06-1.3-.11-2-.15h-.05a40.58,40.58,0,0,0-5.94.14l-1.06.13-.67.08c-.46.07-.92.14-1.39.23l-.24,0a39.75,39.75,0,0,0-12.66,4.64l-.2.12-1.24.75-.39.26c-.36.23-.72.46-1.07.71l-.55.39-.89.65-.76.61-.66.53c-.46.38-.91.77-1.35,1.18l-.61.58-.71.68a.8.8,0,0,1-.13.13h0a73.24,73.24,0,0,1-103.21,0h0a40,40,0,1,0,0,56.31h0a73.22,73.22,0,0,1,101-2.15A132,132,0,1,1,266.11,64.44a132.9,132.9,0,0,1,21,15,40,40,0,1,0-35.3-67.62h0a73,73,0,0,1-51.63,21.3,73,73,0,0,1-51.57-21.24c-.88-.89-1.81-1.75-2.78-2.56l-.21-.18-1.15-.91L144,7.9l-.94-.67c-.27-.19-.53-.37-.81-.55s-.47-.32-.72-.47l-1.09-.67-.29-.18-.27-.14c-.41-.24-.84-.47-1.26-.69l-.5-.26-1.3-.62-.55-.25c-.4-.18-.81-.35-1.22-.51-.22-.09-.45-.19-.68-.27s-.71-.26-1.07-.39l-.87-.3-.88-.27-1.11-.31-.66-.17c-.45-.11-.9-.22-1.35-.31L128,.77c-.52-.1-1-.2-1.57-.28l-.29,0c-.6-.09-1.19-.17-1.78-.23l-.16,0c-.63-.06-1.27-.11-1.91-.14h-.09c-.66,0-1.31,0-2,0h-.13c-.61,0-1.22,0-1.83.05H118c-.53,0-1,.07-1.57.12l-.54.05L114.6.39c-.28,0-.56.07-.83.12l-.89.16c-.37.07-.75.13-1.12.21L111.2,1l-1.38.34-.31.08c-.52.15-1.05.3-1.57.47l-.16.05q-.84.27-1.65.57l-.24.09-1.51.61c-.22.09-.42.19-.63.29L102.68,4c-.47.22-.93.46-1.39.71l-.27.13A39.88,39.88,0,0,0,88.15,16a1.56,1.56,0,0,1-.16.2l-.82,1.17-.38.55c-.21.31-.41.63-.6.94s-.35.56-.52.84-.15.24-.22.37l-.23.42c-.19.34-.38.68-.55,1s-.27.5-.39.75-.33.68-.49,1-.25.54-.37.82-.27.63-.4,1-.26.63-.38.95l-.29.81c-.13.38-.26.75-.38,1.13-.07.21-.13.42-.19.63-.14.45-.27.9-.38,1.34l-.12.45c-.12.52-.25,1-.35,1.55l-.06.27c-.11.59-.22,1.17-.31,1.75,0,0,0,.09,0,.14q-.15.94-.24,1.89V36c-.06.66-.11,1.31-.15,2V38c0,.64,0,1.29,0,1.93v.19c0,.58,0,1.16,0,1.73,0,.15,0,.3,0,.45,0,.47.06.93.1,1.39,0,.26,0,.52.08.77s.08.66.13,1,.1.75.16,1.12c0,.2.07.4.11.6.09.48.18,1,.28,1.44l.06.27c.13.56.27,1.13.42,1.68h0A73,73,0,0,1,74.14,106,73,73,0,0,1,29.87,140h0c-.55.15-1.11.31-1.66.48l-.27.09c-.46.14-.92.3-1.38.46l-.58.22-1,.41-.92.39-.71.32c-.42.19-.84.39-1.25.6l-.4.2c-.51.27-1,.54-1.52.83l-.09,0-.08.05c-.55.32-1.11.66-1.65,1l-.05,0c-.56.36-1.1.73-1.64,1.12l0,0c-.52.37-1,.76-1.53,1.16l-.1.08c-.46.37-.92.76-1.36,1.15l-.2.18c-.4.35-.79.72-1.18,1.09l-.32.31c-.33.33-.66.67-1,1-.15.16-.3.31-.44.48s-.54.59-.8.9l-.55.65c-.22.27-.43.53-.64.81s-.42.54-.62.81-.35.49-.53.74l-.64.93-.46.72-.6,1-.25.41-.21.38c-.16.28-.31.57-.47.86s-.35.66-.51,1-.19.4-.29.59c-.21.44-.41.87-.6,1.31l-.09.23A39.77,39.77,0,0,0,0,179.8a2.64,2.64,0,0,1,0,.29c0,.52,0,1,.08,1.56s.07.77.11,1.16c0,.23,0,.47.07.7.06.54.14,1.08.23,1.61a2,2,0,0,0,0,.26c.09.57.2,1.14.32,1.71a1.16,1.16,0,0,1,0,.18c.12.52.25,1,.38,1.58a3,3,0,0,1,.08.32c.13.45.26.9.4,1.35l.17.56c.12.36.25.71.37,1.07s.2.57.31.86.21.51.31.77.32.77.49,1.15c.07.17.15.33.22.49.22.48.45,1,.69,1.43,0,.08.08.17.13.25.28.55.57,1.08.88,1.62l0,.05,0,0c.32.57.67,1.13,1,1.68l.05.07c.35.54.71,1.07,1.09,1.59l.09.13c.35.48.71,1,1.09,1.43l.17.22c.34.42.69.83,1.05,1.24l.3.34q.46.53,1,1l.47.49.84.81.65.61.72.62c.28.24.56.49.85.72l.59.47c.34.27.69.53,1,.78l.52.37c.38.27.77.54,1.16.79l.5.33,1.2.73.26.16.33.18c.36.2.72.4,1.09.59l.81.41.84.41,1.1.49.53.23,1.42.56.21.07c1.21.44,2.42.82,3.65,1.14a73,73,0,0,1,44.14,34,72.91,72.91,0,0,1,8,52.85,40.12,40.12,0,0,0,68.2,39.38,73.2,73.2,0,0,1,101.33,1.72c.88.89,1.81,1.75,2.78,2.56l.21.18c.38.31.76.61,1.16.91l.49.38.94.67.81.55.72.47,1.09.67.3.18.26.14q.63.36,1.26.69l.51.26c.42.21.85.42,1.29.62l.55.25c.4.18.81.35,1.22.51.22.09.45.19.68.27s.71.27,1.07.39l.88.3.87.27,1.11.31.67.17,1.35.32.46.09c.52.1,1.05.2,1.58.28l.29.05c.59.08,1.18.16,1.77.22l.16,0c.64.06,1.27.11,1.91.14h.1c.65,0,1.3.05,2,.05h.12c.61,0,1.22,0,1.84-.05h.28c.53,0,1.05-.07,1.57-.12l.54-.05,1.25-.16c.27,0,.55-.07.82-.12l.9-.16c.37-.07.74-.13,1.11-.21l.57-.13,1.37-.34.31-.08,1.57-.46.17-.06c.55-.18,1.1-.37,1.64-.57l.24-.1c.51-.19,1-.39,1.52-.6l.63-.29,1.07-.49c.47-.22.93-.47,1.39-.71l.26-.13a39.76,39.76,0,0,0,12.87-11.11l.16-.2.83-1.17.37-.55c.21-.31.41-.63.61-.94l.51-.84c.07-.13.15-.24.22-.37s.16-.28.24-.42Z" />
    </g>
  </g>
</svg>